<?xml version="1.0" encoding="UTF-8" standalone="no"?><!DOCTYPE svg PUBLIC "-//W3C//DTD SVG 1.1//EN" "http://www.w3.org/Graphics/SVG/1.1/DTD/svg11.dtd"><svg width="100%" height="100%" viewBox="0 0 10685 3511" version="1.1" xmlns="http://www.w3.org/2000/svg" xmlns:xlink="http://www.w3.org/1999/xlink" xml:space="preserve" xmlns:serif="http://www.serif.com/" style="fill-rule:evenodd;clip-rule:evenodd;stroke-linecap:round;stroke-miterlimit:10;"><g id="DI"><g transform="matrix(31.25,0,0,31.25,-1559.94,-11908.6)"><g transform="matrix(40.7208,0,0,40.7208,121.799,445.358)"><path d="M0.058,-0l0,-0.696l0.165,0l0,0.306l0.241,-0.306l0.162,0l-0.228,0.304l0.26,0.392l-0.178,0l-0.178,-0.263l-0.079,0.106l-0,0.157l-0.165,0Z" style="fill:#1d1e1c;fill-rule:nonzero;"/></g><g transform="matrix(40.7208,0,0,40.7208,145.702,445.358)"><path d="M0.377,0.006c-0.049,0 -0.095,-0.008 -0.137,-0.025c-0.043,-0.016 -0.079,-0.039 -0.11,-0.069c-0.032,-0.031 -0.056,-0.068 -0.074,-0.113c-0.017,-0.044 -0.026,-0.093 -0.026,-0.148c-0,-0.055 0.009,-0.104 0.026,-0.148c0.017,-0.044 0.041,-0.081 0.072,-0.112c0.031,-0.031 0.067,-0.054 0.11,-0.071c0.043,-0.016 0.089,-0.024 0.139,-0.024c0.05,-0 0.097,0.008 0.139,0.024c0.043,0.017 0.08,0.04 0.112,0.071c0.031,0.031 0.055,0.068 0.073,0.112c0.017,0.044 0.026,0.093 0.026,0.148c0,0.055 -0.009,0.104 -0.026,0.148c-0.018,0.045 -0.043,0.082 -0.074,0.112c-0.031,0.031 -0.068,0.054 -0.111,0.07c-0.043,0.017 -0.089,0.025 -0.139,0.025Zm0.001,-0.137c0.025,-0 0.048,-0.006 0.069,-0.018c0.02,-0.012 0.037,-0.028 0.05,-0.048c0.014,-0.02 0.025,-0.043 0.032,-0.07c0.007,-0.026 0.011,-0.053 0.011,-0.082c0,-0.029 -0.004,-0.056 -0.011,-0.083c-0.007,-0.026 -0.018,-0.049 -0.032,-0.069c-0.013,-0.02 -0.03,-0.036 -0.05,-0.048c-0.021,-0.012 -0.044,-0.018 -0.069,-0.018c-0.026,0 -0.049,0.006 -0.07,0.018c-0.021,0.011 -0.038,0.027 -0.052,0.046c-0.014,0.02 -0.025,0.043 -0.032,0.07c-0.007,0.027 -0.011,0.055 -0.011,0.084c0,0.03 0.004,0.058 0.011,0.085c0.007,0.027 0.018,0.05 0.032,0.069c0.014,0.019 0.031,0.035 0.052,0.046c0.021,0.012 0.044,0.018 0.07,0.018Z" style="fill:#1d1e1c;fill-rule:nonzero;"/></g><g transform="matrix(40.7208,0,0,40.7208,176.487,445.358)"><path d="M0.056,-0l0,-0.696l0.274,0c0.047,0 0.091,0.008 0.132,0.023c0.04,0.015 0.075,0.038 0.104,0.067c0.029,0.029 0.052,0.065 0.069,0.108c0.017,0.043 0.025,0.091 0.025,0.145c0,0.056 -0.009,0.106 -0.026,0.15c-0.018,0.044 -0.042,0.081 -0.072,0.111c-0.03,0.03 -0.065,0.053 -0.106,0.069c-0.041,0.015 -0.084,0.023 -0.13,0.023l-0.27,0Zm0.262,-0.563l-0.098,0l-0,0.43l0.093,0c0.05,0 0.091,-0.019 0.123,-0.057c0.033,-0.039 0.049,-0.094 0.049,-0.166c0,-0.064 -0.015,-0.114 -0.044,-0.151c-0.029,-0.037 -0.07,-0.056 -0.123,-0.056Z" style="fill:#1d1e1c;fill-rule:nonzero;"/></g><g transform="matrix(40.7208,0,0,40.7208,204.829,445.358)"><path d="M0.056,-0l0,-0.696l0.464,0l0,0.136l-0.301,0l-0,0.125l0.286,0l-0,0.129l-0.286,0l-0,0.17l0.301,0l0,0.136l-0.464,0Z" style="fill:#1d1e1c;fill-rule:nonzero;"/></g><g transform="matrix(40.7208,0,0,40.7208,227.266,445.358)"><rect x="0.056" y="-0.696" width="0.165" height="0.696" style="fill:#1d1e1c;fill-rule:nonzero;"/></g><g transform="matrix(40.7208,0,0,40.7208,238.505,445.358)"><path d="M0.052,-0l0,-0.696l0.155,0l0.268,0.373c0.005,0.009 0.011,0.021 0.019,0.035c0.008,0.013 0.013,0.022 0.015,0.026l0.004,-0.001c-0.001,-0.009 -0.002,-0.023 -0.002,-0.042c-0.001,-0.019 -0.002,-0.037 -0.002,-0.054l0,-0.337l0.142,-0l0,0.696l-0.152,-0l-0.274,-0.378c-0.005,-0.009 -0.011,-0.02 -0.018,-0.033c-0.007,-0.013 -0.012,-0.021 -0.014,-0.025l-0.004,0.001c0.001,0.011 0.002,0.025 0.003,0.042c0.001,0.017 0.001,0.033 0.001,0.046l0,0.347l-0.141,-0Z" style="fill:#1d1e1c;fill-rule:nonzero;"/></g><g transform="matrix(40.7208,0,0,40.7208,267.131,445.358)"><path d="M0.083,-0l0,-0.696l0.205,0c0.046,0 0.089,0.007 0.129,0.022c0.04,0.015 0.075,0.036 0.104,0.065c0.029,0.028 0.052,0.063 0.07,0.106c0.017,0.043 0.025,0.092 0.025,0.147c0,0.061 -0.009,0.113 -0.026,0.158c-0.018,0.045 -0.042,0.082 -0.072,0.111c-0.03,0.029 -0.065,0.051 -0.104,0.065c-0.04,0.015 -0.082,0.022 -0.126,0.022l-0.205,-0Zm0.202,-0.64l-0.141,0l0,0.584l0.135,0c0.039,0 0.076,-0.006 0.109,-0.019c0.033,-0.013 0.062,-0.032 0.086,-0.057c0.024,-0.025 0.043,-0.057 0.056,-0.094c0.013,-0.037 0.02,-0.081 0.02,-0.13c0,-0.042 -0.006,-0.08 -0.018,-0.115c-0.012,-0.035 -0.029,-0.066 -0.052,-0.09c-0.023,-0.025 -0.051,-0.045 -0.084,-0.058c-0.033,-0.014 -0.07,-0.021 -0.111,-0.021Z" style="fill:#ef822b;fill-rule:nonzero;"/></g><g transform="matrix(40.7208,0,0,40.7208,294.251,445.358)"><rect x="0.083" y="-0.696" width="0.061" height="0.696" style="fill:#ef822b;fill-rule:nonzero;"/></g></g><path d="M606.735,2189.23c-0,138.807 112.693,251.5 251.5,251.5c138.806,-0 251.5,-112.693 251.5,-251.5c-0,-138.807 -112.694,-251.5 -251.5,-251.5c-138.807,-0 -251.5,112.693 -251.5,251.5Z" style="fill:none;stroke:#1d1d1b;stroke-width:120.28px;"/><path d="M861.863,1937.74c345.937,0 626.375,138.188 626.375,484.125c-0,277.438 -232.313,484.125 -595.219,484.125c-344.437,0 -712.219,-242.594 -712.219,-775.906c0,-533.25 574.563,-1060.41 1107.84,-1060.41" style="fill:none;fill-rule:nonzero;stroke:#1d1d1b;stroke-width:120.28px;"/><path d="M1559.05,1321.16c0,-138.807 -112.686,-251.5 -251.484,-251.5c-138.798,0 -251.484,112.693 -251.484,251.5c-0,138.807 112.686,251.5 251.484,251.5c138.798,0 251.484,-112.693 251.484,-251.5Z" style="fill:none;stroke:#1d1d1b;stroke-width:120.28px;"/><path d="M1303.92,1572.66c-345.937,-0 -626.375,-138.188 -626.375,-484.125c0,-277.406 232.313,-484.125 595.219,-484.125c344.438,-0 712.219,242.625 712.219,775.906c-0,533.281 -574.563,1060.41 -1107.84,1060.41" style="fill:none;fill-rule:nonzero;stroke:#1d1d1b;stroke-width:120.28px;"/><g><path d="M4591.47,2464.91l203.875,-203.531l-408.875,0l-0,408.844l408.875,-0l-203.969,-205.219l0.094,-0.094Z" style="fill:#000400;fill-rule:nonzero;"/><path d="M2289.47,2806.29l0,-447.3l32.542,-0l1.775,59.166c9.861,-19.327 24.455,-34.908 43.783,-46.741c19.328,-11.834 40.825,-17.75 64.492,-17.75c18.933,-0 36.486,3.451 52.658,10.354c16.172,6.903 30.076,16.961 41.713,30.175c11.636,13.214 20.708,29.485 27.216,48.812c6.509,19.328 9.763,41.22 9.763,65.675c-0,24.456 -3.254,46.644 -9.763,66.563c-6.508,19.919 -15.58,36.881 -27.216,50.883c-11.637,14.003 -25.442,24.752 -41.417,32.246c-15.975,7.495 -33.429,11.242 -52.363,11.242c-23.666,-0 -44.966,-5.227 -63.9,-15.679c-18.933,-10.453 -33.33,-25.146 -43.191,-44.08l-0,196.434l-36.092,-0Zm136.083,-167.442c29.189,0 53.448,-11.636 72.775,-34.908c19.328,-23.272 28.992,-53.842 28.992,-91.709c0,-38.261 -9.368,-69.225 -28.104,-92.891c-18.736,-23.667 -43.882,-35.5 -75.438,-35.5c-30.372,-0 -54.63,11.735 -72.775,35.204c-18.144,23.469 -27.216,54.137 -27.216,92.004c-0,39.445 9.269,70.606 27.808,93.483c18.539,22.878 43.192,34.317 73.958,34.317Z" style="fill-rule:nonzero;"/><path d="M2708.96,2669.62c-14.2,-0 -27.71,-1.874 -40.529,-5.621c-12.82,-3.747 -23.963,-9.565 -33.43,-17.454c-9.466,-7.889 -16.961,-17.947 -22.483,-30.175c-5.522,-12.228 -8.283,-26.625 -8.283,-43.192c-0,-16.172 2.958,-30.372 8.875,-42.6c5.916,-12.228 13.904,-22.385 23.962,-30.471c10.059,-8.086 21.695,-14.101 34.909,-18.046c13.213,-3.944 26.92,-5.916 41.12,-5.916c19.328,-0 36.388,3.353 51.18,10.058c14.791,6.706 26.329,16.172 34.612,28.4l0,-53.25c0,-24.85 -6.804,-43.685 -20.412,-56.504c-13.609,-12.819 -35.599,-19.229 -65.971,-19.229c-18.145,-0 -34.218,1.775 -48.221,5.325c-14.003,3.55 -25.935,7.494 -35.796,11.833l0,-29.583c8.283,-4.734 20.61,-9.171 36.979,-13.313c16.37,-4.141 34.81,-6.212 55.321,-6.212c40.233,-0 69.225,9.368 86.975,28.104c17.75,18.736 26.625,44.079 26.625,76.029l0,160.342c0,9.466 0.394,18.637 1.183,27.512c0.789,8.875 1.775,15.679 2.959,20.413l-34.909,-0l-3.55,-37.867c-8.677,13.411 -21.201,23.667 -37.57,30.767c-16.37,7.1 -34.219,10.65 -53.546,10.65Zm11.833,-25.442c9.861,0 19.624,-1.479 29.288,-4.437c9.663,-2.959 18.243,-7.495 25.737,-13.609c7.494,-6.114 13.51,-13.707 18.046,-22.779c4.536,-9.072 6.804,-19.722 6.804,-31.95c0,-11.439 -2.169,-21.497 -6.508,-30.175c-4.339,-8.678 -10.157,-15.876 -17.454,-21.596c-7.298,-5.719 -15.68,-10.058 -25.146,-13.016c-9.467,-2.959 -19.131,-4.438 -28.992,-4.438c-21.3,0 -40.135,5.621 -56.504,16.863c-16.37,11.241 -24.554,28.695 -24.554,52.362c-0,25.639 7.889,44.178 23.666,55.617c15.778,11.439 34.317,17.158 55.617,17.158Z" style="fill-rule:nonzero;"/><path d="M2935.57,2298.05c-5.917,0 -11.044,-2.071 -15.383,-6.212c-4.339,-4.142 -6.509,-9.171 -6.509,-15.088c0,-6.311 2.17,-11.636 6.509,-15.975c4.339,-4.339 9.466,-6.508 15.383,-6.508c6.311,-0 11.735,2.169 16.271,6.508c4.536,4.339 6.804,9.664 6.804,15.975c0,5.917 -2.268,10.946 -6.804,15.088c-4.536,4.141 -9.96,6.212 -16.271,6.212Zm-17.75,368.017l0,-307.667l36.092,0l-0,307.667l-36.092,-0Z" style="fill-rule:nonzero;"/><path d="M3040.88,2666.07l-0,-307.667l32.541,0l2.367,53.25c8.678,-17.75 21.399,-31.851 38.163,-42.304c16.763,-10.453 37.176,-15.679 61.237,-15.679c33.528,-0 59.167,10.453 76.917,31.358c17.75,20.906 26.625,49.503 26.625,85.792l-0,195.25l-36.092,-0l0,-188.742c0,-29.189 -6.508,-51.968 -19.525,-68.337c-13.017,-16.37 -32.542,-24.555 -58.575,-24.555c-13.806,0 -26.231,2.564 -37.275,7.692c-11.044,5.128 -20.215,11.833 -27.512,20.117c-7.298,8.283 -12.919,18.046 -16.863,29.287c-3.944,11.242 -5.917,22.977 -5.917,35.204l0,189.334l-36.091,-0Z" style="fill-rule:nonzero;"/><rect x="3363.34" y="2240.07" width="36.092" height="426" style="fill-rule:nonzero;"/><path d="M3623.08,2670.21c-21.3,0 -41.417,-3.451 -60.35,-10.354c-18.934,-6.902 -35.303,-17.158 -49.109,-30.766c-13.805,-13.609 -24.85,-30.57 -33.133,-50.884c-8.283,-20.314 -12.425,-43.882 -12.425,-70.704c0,-22.878 3.451,-43.783 10.354,-62.717c6.903,-18.933 16.37,-35.204 28.4,-48.812c12.031,-13.608 26.132,-24.16 42.304,-31.654c16.173,-7.495 33.528,-11.242 52.067,-11.242c21.3,0 40.036,3.747 56.208,11.242c16.173,7.494 29.485,17.75 39.938,30.766c10.453,13.017 18.243,28.499 23.371,46.446c5.127,17.948 7.297,37.374 6.508,58.279l-0.592,11.834l-221.875,-0c0.395,21.3 4.043,39.937 10.946,55.912c6.903,15.975 15.877,29.386 26.921,40.234c11.044,10.847 23.963,18.933 38.754,24.258c14.792,5.325 30.668,7.987 47.629,7.987c19.723,0 37.473,-2.859 53.25,-8.579c15.778,-5.719 29.189,-11.932 40.234,-18.637l-0,29.583c-11.045,7.889 -24.85,14.496 -41.417,19.821c-16.567,5.325 -35.894,7.987 -57.983,7.987Zm-21.892,-283.408c-25.639,0 -47.037,8.875 -64.196,26.625c-17.158,17.75 -27.512,41.614 -31.062,71.592l188.15,-0c-0.789,-30.767 -9.763,-54.828 -26.921,-72.184c-17.158,-17.355 -39.149,-26.033 -65.971,-26.033Z" style="fill-rule:nonzero;"/><path d="M3872.77,2670.21c-20.511,0 -38.853,-1.972 -55.025,-5.916c-16.172,-3.945 -29.781,-8.678 -40.825,-14.2l0,-30.767c14.2,6.311 28.597,11.439 43.192,15.383c14.594,3.945 31.752,5.917 51.475,5.917c20.511,0 37.965,-4.142 52.362,-12.425c14.397,-8.283 21.596,-20.905 21.596,-37.867c0,-17.75 -6.706,-31.062 -20.117,-39.937c-13.411,-8.875 -35.697,-19.821 -66.858,-32.838c-33.528,-13.805 -55.715,-26.526 -66.562,-38.162c-10.848,-11.636 -16.271,-27.118 -16.271,-46.446c-0,-22.483 9.861,-41.318 29.583,-56.504c19.722,-15.186 46.742,-22.779 81.058,-22.779c19.328,-0 35.993,1.775 49.996,5.325c14.003,3.55 25.738,7.297 35.204,11.241l0,32.542c-12.227,-5.128 -24.948,-9.565 -38.162,-13.312c-13.214,-3.748 -28.696,-5.621 -46.446,-5.621c-22.878,-0 -41.121,3.944 -54.729,11.833c-13.608,7.889 -20.413,19.722 -20.413,35.5c0,13.017 5.227,23.963 15.68,32.838c10.452,8.875 31.456,19.623 63.012,32.245c30.372,12.228 53.151,24.456 68.338,36.684c15.186,12.228 22.779,30.372 22.779,54.433c-0,13.806 -3.057,25.935 -9.171,36.388c-6.114,10.452 -14.2,19.13 -24.258,26.033c-10.059,6.903 -21.695,12.031 -34.909,15.383c-13.214,3.353 -26.723,5.029 -40.529,5.029Z" style="fill-rule:nonzero;"/><path d="M4106.48,2670.21c-20.511,0 -38.852,-1.972 -55.025,-5.916c-16.172,-3.945 -29.78,-8.678 -40.825,-14.2l0,-30.767c14.2,6.311 28.598,11.439 43.192,15.383c14.594,3.945 31.753,5.917 51.475,5.917c20.511,0 37.965,-4.142 52.363,-12.425c14.397,-8.283 21.595,-20.905 21.595,-37.867c0,-17.75 -6.705,-31.062 -20.116,-39.937c-13.411,-8.875 -35.698,-19.821 -66.859,-32.838c-33.527,-13.805 -55.715,-26.526 -66.562,-38.162c-10.847,-11.636 -16.271,-27.118 -16.271,-46.446c0,-22.483 9.861,-41.318 29.583,-56.504c19.723,-15.186 46.742,-22.779 81.059,-22.779c19.327,-0 35.993,1.775 49.996,5.325c14.002,3.55 25.737,7.297 35.204,11.241l-0,32.542c-12.228,-5.128 -24.949,-9.565 -38.163,-13.312c-13.214,-3.748 -28.696,-5.621 -46.446,-5.621c-22.877,-0 -41.12,3.944 -54.729,11.833c-13.608,7.889 -20.412,19.722 -20.412,35.5c-0,13.017 5.226,23.963 15.679,32.838c10.453,8.875 31.457,19.623 63.012,32.245c30.373,12.228 53.152,24.456 68.338,36.684c15.186,12.228 22.779,30.372 22.779,54.433c0,13.806 -3.057,25.935 -9.171,36.388c-6.114,10.452 -14.2,19.13 -24.258,26.033c-10.058,6.903 -21.695,12.031 -34.908,15.383c-13.214,3.353 -26.724,5.029 -40.53,5.029Z" style="fill-rule:nonzero;"/><path d="M5059.91,2669.62c-18.934,-0 -36.486,-3.353 -52.659,-10.059c-16.172,-6.705 -30.175,-16.566 -42.008,-29.583c-11.833,-13.017 -21.103,-29.386 -27.808,-49.108c-6.706,-19.722 -10.059,-42.403 -10.059,-68.042c0,-24.455 3.452,-46.544 10.355,-66.267c6.902,-19.722 16.369,-36.387 28.4,-49.995c12.03,-13.609 26.23,-24.16 42.6,-31.655c16.369,-7.494 34.218,-11.241 53.545,-11.241c26.034,-0 47.827,5.719 65.38,17.158c17.552,11.439 30.668,25.639 39.345,42.6l0,-173.358l36.092,-0l0,426l-32.542,-0l-2.366,-60.35c-11.045,20.511 -26.231,36.289 -45.559,47.333c-19.327,11.045 -40.233,16.567 -62.716,16.567Zm7.691,-31.359c15.778,0 29.978,-3.155 42.6,-9.466c12.623,-6.311 23.371,-14.989 32.246,-26.034c8.875,-11.044 15.581,-24.258 20.117,-39.641c4.536,-15.384 6.804,-31.95 6.804,-49.7c0,-37.867 -9.171,-68.831 -27.512,-92.892c-18.342,-24.061 -43.094,-36.092 -74.255,-36.092c-30.766,0 -55.32,11.834 -73.662,35.5c-18.342,23.667 -27.513,54.434 -27.513,92.3c0,37.078 8.875,67.352 26.625,90.821c17.75,23.47 42.6,35.204 74.55,35.204Z" style="fill-rule:nonzero;"/><path d="M5426.74,2670.21c-21.3,0 -41.417,-3.451 -60.35,-10.354c-18.933,-6.902 -35.303,-17.158 -49.108,-30.766c-13.806,-13.609 -24.85,-30.57 -33.134,-50.884c-8.283,-20.314 -12.425,-43.882 -12.425,-70.704c0,-22.878 3.452,-43.783 10.355,-62.717c6.902,-18.933 16.369,-35.204 28.4,-48.812c12.03,-13.608 26.131,-24.16 42.304,-31.654c16.172,-7.495 33.527,-11.242 52.066,-11.242c21.3,0 40.036,3.747 56.209,11.242c16.172,7.494 29.484,17.75 39.937,30.766c10.453,13.017 18.243,28.499 23.371,46.446c5.128,17.948 7.297,37.374 6.508,58.279l-0.591,11.834l-221.875,-0c0.394,21.3 4.043,39.937 10.946,55.912c6.902,15.975 15.876,29.386 26.92,40.234c11.045,10.847 23.963,18.933 38.755,24.258c14.791,5.325 30.668,7.987 47.629,7.987c19.722,0 37.472,-2.859 53.25,-8.579c15.777,-5.719 29.189,-11.932 40.233,-18.637l0,29.583c-11.044,7.889 -24.85,14.496 -41.417,19.821c-16.566,5.325 -35.894,7.987 -57.983,7.987Zm-21.892,-283.408c-25.639,0 -47.037,8.875 -64.195,26.625c-17.159,17.75 -27.513,41.614 -31.063,71.592l188.15,-0c-0.789,-30.767 -9.762,-54.828 -26.921,-72.184c-17.158,-17.355 -39.148,-26.033 -65.971,-26.033Z" style="fill-rule:nonzero;"/><path d="M5600.69,2806.29l0,-447.3l32.542,-0l1.775,59.166c9.861,-19.327 24.455,-34.908 43.783,-46.741c19.328,-11.834 40.825,-17.75 64.492,-17.75c18.933,-0 36.486,3.451 52.658,10.354c16.172,6.903 30.076,16.961 41.713,30.175c11.636,13.214 20.708,29.485 27.216,48.812c6.509,19.328 9.763,41.22 9.763,65.675c-0,24.456 -3.254,46.644 -9.763,66.563c-6.508,19.919 -15.58,36.881 -27.216,50.883c-11.637,14.003 -25.442,24.752 -41.417,32.246c-15.975,7.495 -33.429,11.242 -52.363,11.242c-23.666,-0 -44.966,-5.227 -63.9,-15.679c-18.933,-10.453 -33.33,-25.146 -43.191,-44.08l-0,196.434l-36.092,-0Zm136.083,-167.442c29.189,0 53.448,-11.636 72.775,-34.908c19.328,-23.272 28.992,-53.842 28.992,-91.709c0,-38.261 -9.368,-69.225 -28.104,-92.891c-18.736,-23.667 -43.882,-35.5 -75.438,-35.5c-30.372,-0 -54.63,11.735 -72.775,35.204c-18.144,23.469 -27.216,54.137 -27.216,92.004c-0,39.445 9.269,70.606 27.808,93.483c18.539,22.878 43.192,34.317 73.958,34.317Z" style="fill-rule:nonzero;"/><path d="M6079.35,2670.21c-21.3,0 -41.416,-3.451 -60.35,-10.354c-18.933,-6.902 -35.302,-17.158 -49.108,-30.766c-13.806,-13.609 -24.85,-30.57 -33.133,-50.884c-8.284,-20.314 -12.425,-43.882 -12.425,-70.704c-0,-22.878 3.451,-43.783 10.354,-62.717c6.903,-18.933 16.369,-35.204 28.4,-48.812c12.03,-13.608 26.132,-24.16 42.304,-31.654c16.172,-7.495 33.528,-11.242 52.067,-11.242c21.3,0 40.036,3.747 56.208,11.242c16.172,7.494 29.485,17.75 39.938,30.766c10.452,13.017 18.243,28.499 23.37,46.446c5.128,17.948 7.298,37.374 6.509,58.279l-0.592,11.834l-221.875,-0c0.394,21.3 4.043,39.937 10.946,55.912c6.903,15.975 15.876,29.386 26.921,40.234c11.044,10.847 23.962,18.933 38.754,24.258c14.792,5.325 30.668,7.987 47.629,7.987c19.722,0 37.472,-2.859 53.25,-8.579c15.778,-5.719 29.189,-11.932 40.233,-18.637l0,29.583c-11.044,7.889 -24.85,14.496 -41.416,19.821c-16.567,5.325 -35.895,7.987 -57.984,7.987Zm-21.891,-283.408c-25.639,0 -47.038,8.875 -64.196,26.625c-17.158,17.75 -27.513,41.614 -31.063,71.592l188.15,-0c-0.789,-30.767 -9.762,-54.828 -26.92,-72.184c-17.159,-17.355 -39.149,-26.033 -65.971,-26.033Z" style="fill-rule:nonzero;"/><path d="M6253.3,2666.07l0,-307.667l32.542,0l2.367,53.25c8.677,-17.75 21.398,-31.851 38.162,-42.304c16.764,-10.453 37.177,-15.679 61.238,-15.679c33.527,-0 59.166,10.453 76.916,31.358c17.75,20.906 26.625,49.503 26.625,85.792l0,195.25l-36.091,-0l-0,-188.742c-0,-29.189 -6.509,-51.968 -19.525,-68.337c-13.017,-16.37 -32.542,-24.555 -58.575,-24.555c-13.806,0 -26.231,2.564 -37.275,7.692c-11.045,5.128 -20.216,11.833 -27.513,20.117c-7.297,8.283 -12.918,18.046 -16.862,29.287c-3.945,11.242 -5.917,22.977 -5.917,35.204l0,189.334l-36.092,-0Z" style="fill-rule:nonzero;"/><path d="M6689.95,2669.62c-18.933,-0 -36.486,-3.353 -52.658,-10.059c-16.172,-6.705 -30.175,-16.566 -42.008,-29.583c-11.834,-13.017 -21.103,-29.386 -27.809,-49.108c-6.705,-19.722 -10.058,-42.403 -10.058,-68.042c0,-24.455 3.451,-46.544 10.354,-66.267c6.903,-19.722 16.37,-36.387 28.4,-49.995c12.031,-13.609 26.231,-24.16 42.6,-31.655c16.37,-7.494 34.218,-11.241 53.546,-11.241c26.033,-0 47.826,5.719 65.379,17.158c17.553,11.439 30.668,25.639 39.346,42.6l0,-173.358l36.092,-0l-0,426l-32.542,-0l-2.367,-60.35c-11.044,20.511 -26.23,36.289 -45.558,47.333c-19.328,11.045 -40.233,16.567 -62.717,16.567Zm7.692,-31.359c15.778,0 29.978,-3.155 42.6,-9.466c12.622,-6.311 23.371,-14.989 32.246,-26.034c8.875,-11.044 15.58,-24.258 20.117,-39.641c4.536,-15.384 6.804,-31.95 6.804,-49.7c-0,-37.867 -9.171,-68.831 -27.513,-92.892c-18.341,-24.061 -43.093,-36.092 -74.254,-36.092c-30.767,0 -55.321,11.834 -73.662,35.5c-18.342,23.667 -27.513,54.434 -27.513,92.3c0,37.078 8.875,67.352 26.625,90.821c17.75,23.47 42.6,35.204 74.55,35.204Z" style="fill-rule:nonzero;"/><path d="M7056.78,2670.21c-21.3,0 -41.417,-3.451 -60.35,-10.354c-18.934,-6.902 -35.303,-17.158 -49.109,-30.766c-13.805,-13.609 -24.85,-30.57 -33.133,-50.884c-8.283,-20.314 -12.425,-43.882 -12.425,-70.704c0,-22.878 3.451,-43.783 10.354,-62.717c6.903,-18.933 16.37,-35.204 28.4,-48.812c12.031,-13.608 26.132,-24.16 42.304,-31.654c16.173,-7.495 33.528,-11.242 52.067,-11.242c21.3,0 40.036,3.747 56.208,11.242c16.173,7.494 29.485,17.75 39.938,30.766c10.453,13.017 18.243,28.499 23.371,46.446c5.127,17.948 7.297,37.374 6.508,58.279l-0.592,11.834l-221.875,-0c0.395,21.3 4.043,39.937 10.946,55.912c6.903,15.975 15.877,29.386 26.921,40.234c11.044,10.847 23.963,18.933 38.754,24.258c14.792,5.325 30.668,7.987 47.629,7.987c19.723,0 37.473,-2.859 53.25,-8.579c15.778,-5.719 29.189,-11.932 40.234,-18.637l-0,29.583c-11.045,7.889 -24.85,14.496 -41.417,19.821c-16.567,5.325 -35.894,7.987 -57.983,7.987Zm-21.892,-283.408c-25.639,0 -47.037,8.875 -64.196,26.625c-17.158,17.75 -27.512,41.614 -31.062,71.592l188.15,-0c-0.789,-30.767 -9.763,-54.828 -26.921,-72.184c-17.158,-17.355 -39.149,-26.033 -65.971,-26.033Z" style="fill-rule:nonzero;"/><path d="M7230.73,2666.07l-0,-307.667l32.541,0l2.367,53.25c8.678,-17.75 21.399,-31.851 38.163,-42.304c16.763,-10.453 37.176,-15.679 61.237,-15.679c33.528,-0 59.167,10.453 76.917,31.358c17.75,20.906 26.625,49.503 26.625,85.792l-0,195.25l-36.092,-0l0,-188.742c0,-29.189 -6.508,-51.968 -19.525,-68.337c-13.017,-16.37 -32.542,-24.555 -58.575,-24.555c-13.806,0 -26.231,2.564 -37.275,7.692c-11.044,5.128 -20.215,11.833 -27.512,20.117c-7.298,8.283 -12.919,18.046 -16.863,29.287c-3.944,11.242 -5.917,22.977 -5.917,35.204l0,189.334l-36.091,-0Z" style="fill-rule:nonzero;"/><path d="M7683.95,2669.62c-20.116,-0 -39.247,-3.254 -57.391,-9.763c-18.145,-6.508 -33.923,-16.369 -47.334,-29.583c-13.411,-13.214 -24.061,-29.781 -31.95,-49.7c-7.889,-19.919 -11.833,-43.093 -11.833,-69.521c0,-24.455 3.649,-46.446 10.946,-65.971c7.297,-19.525 17.158,-35.993 29.583,-49.404c12.425,-13.411 27.315,-23.765 44.671,-31.062c17.356,-7.298 36.092,-10.946 56.208,-10.946c19.723,-0 36.782,2.071 51.18,6.212c14.397,4.142 25.737,8.777 34.02,13.904l0,32.542c-9.466,-5.128 -21.201,-9.664 -35.204,-13.608c-14.003,-3.945 -28.893,-5.917 -44.671,-5.917c-31.95,0 -58.18,10.749 -78.691,32.246c-20.511,21.497 -30.57,52.165 -30.175,92.004c-0,41.811 10.946,73.367 32.837,94.667c21.892,21.3 49.404,31.95 82.538,31.95c14.594,-0 28.104,-1.972 40.529,-5.917c12.425,-3.944 24.16,-8.875 35.204,-14.792l0,31.359c-11.044,6.311 -22.976,11.439 -35.796,15.383c-12.819,3.945 -27.71,5.917 -44.671,5.917Z" style="fill-rule:nonzero;"/><path d="M7844.29,2806.88c-8.678,0 -16.369,-0.887 -23.075,-2.662c-6.706,-1.775 -12.031,-4.043 -15.975,-6.804l0,-27.217c4.339,2.367 9.368,4.339 15.088,5.917c5.719,1.578 12.326,2.366 19.82,2.366c15.384,0 28.302,-7.691 38.755,-23.075c10.452,-15.383 21.793,-38.852 34.02,-70.408l-127.8,-326.6l38.459,0l107.683,275.717l98.217,-275.717l38.458,0l-120.7,332.517c-15.778,42.205 -31.358,72.085 -46.742,89.637c-15.383,17.553 -34.119,26.329 -56.208,26.329Z" style="fill-rule:nonzero;"/><path d="M8254.32,2298.05c-5.917,0 -11.044,-2.071 -15.383,-6.212c-4.339,-4.142 -6.509,-9.171 -6.509,-15.088c0,-6.311 2.17,-11.636 6.509,-15.975c4.339,-4.339 9.466,-6.508 15.383,-6.508c6.311,-0 11.735,2.169 16.271,6.508c4.536,4.339 6.804,9.664 6.804,15.975c0,5.917 -2.268,10.946 -6.804,15.088c-4.536,4.141 -9.96,6.212 -16.271,6.212Zm-17.75,368.017l0,-307.667l36.092,0l-0,307.667l-36.092,-0Z" style="fill-rule:nonzero;"/><path d="M8359.63,2666.07l-0,-307.667l32.541,0l2.367,53.25c8.678,-17.75 21.399,-31.851 38.163,-42.304c16.763,-10.453 37.176,-15.679 61.237,-15.679c33.528,-0 59.167,10.453 76.917,31.358c17.75,20.906 26.625,49.503 26.625,85.792l-0,195.25l-36.092,-0l0,-188.742c0,-29.189 -6.508,-51.968 -19.525,-68.337c-13.017,-16.37 -32.542,-24.555 -58.575,-24.555c-13.806,0 -26.231,2.564 -37.275,7.692c-11.044,5.128 -20.215,11.833 -27.512,20.117c-7.298,8.283 -12.919,18.046 -16.863,29.287c-3.944,11.242 -5.917,22.977 -5.917,35.204l0,189.334l-36.091,-0Z" style="fill-rule:nonzero;"/><path d="M8699.84,2298.05c-5.917,0 -11.044,-2.071 -15.383,-6.212c-4.339,-4.142 -6.509,-9.171 -6.509,-15.088c0,-6.311 2.17,-11.636 6.509,-15.975c4.339,-4.339 9.466,-6.508 15.383,-6.508c6.311,-0 11.735,2.169 16.271,6.508c4.536,4.339 6.804,9.664 6.804,15.975c0,5.917 -2.268,10.946 -6.804,15.088c-4.536,4.141 -9.96,6.212 -16.271,6.212Zm-62.717,508.833c-8.677,0 -16.961,-0.986 -24.85,-2.958c-7.889,-1.972 -13.805,-4.142 -17.75,-6.508l0,-30.767c4.734,2.367 10.355,4.536 16.863,6.508c6.508,1.973 13.51,2.959 21.004,2.959c12.228,-0 23.568,-4.142 34.021,-12.425c10.453,-8.284 15.679,-24.85 15.679,-49.7l0,-355.592l36.092,0l-0,355.592c-0,17.355 -2.466,31.95 -7.396,43.783c-4.931,11.833 -11.242,21.399 -18.933,28.696c-7.692,7.297 -16.37,12.524 -26.034,15.679c-9.664,3.156 -19.229,4.733 -28.696,4.733Z" style="fill-rule:nonzero;"/><path d="M8941.83,2670.21c-21.3,0 -41.417,-3.451 -60.35,-10.354c-18.934,-6.902 -35.303,-17.158 -49.109,-30.766c-13.805,-13.609 -24.85,-30.57 -33.133,-50.884c-8.283,-20.314 -12.425,-43.882 -12.425,-70.704c0,-22.878 3.451,-43.783 10.354,-62.717c6.903,-18.933 16.37,-35.204 28.4,-48.812c12.031,-13.608 26.132,-24.16 42.304,-31.654c16.173,-7.495 33.528,-11.242 52.067,-11.242c21.3,0 40.036,3.747 56.208,11.242c16.173,7.494 29.485,17.75 39.938,30.766c10.453,13.017 18.243,28.499 23.371,46.446c5.127,17.948 7.297,37.374 6.508,58.279l-0.592,11.834l-221.875,-0c0.395,21.3 4.043,39.937 10.946,55.912c6.903,15.975 15.877,29.386 26.921,40.234c11.044,10.847 23.963,18.933 38.754,24.258c14.792,5.325 30.668,7.987 47.629,7.987c19.723,0 37.473,-2.859 53.25,-8.579c15.778,-5.719 29.189,-11.932 40.234,-18.637l-0,29.583c-11.045,7.889 -24.85,14.496 -41.417,19.821c-16.567,5.325 -35.894,7.987 -57.983,7.987Zm-21.892,-283.408c-25.639,0 -47.037,8.875 -64.196,26.625c-17.158,17.75 -27.512,41.614 -31.062,71.592l188.15,-0c-0.789,-30.767 -9.763,-54.828 -26.921,-72.184c-17.158,-17.355 -39.149,-26.033 -65.971,-26.033Z" style="fill-rule:nonzero;"/><path d="M9237.08,2669.62c-20.116,-0 -39.247,-3.254 -57.391,-9.763c-18.145,-6.508 -33.923,-16.369 -47.334,-29.583c-13.411,-13.214 -24.061,-29.781 -31.95,-49.7c-7.889,-19.919 -11.833,-43.093 -11.833,-69.521c0,-24.455 3.649,-46.446 10.946,-65.971c7.297,-19.525 17.158,-35.993 29.583,-49.404c12.425,-13.411 27.315,-23.765 44.671,-31.062c17.356,-7.298 36.092,-10.946 56.208,-10.946c19.723,-0 36.782,2.071 51.18,6.212c14.397,4.142 25.737,8.777 34.02,13.904l0,32.542c-9.466,-5.128 -21.201,-9.664 -35.204,-13.608c-14.003,-3.945 -28.893,-5.917 -44.671,-5.917c-31.95,0 -58.18,10.749 -78.691,32.246c-20.511,21.497 -30.57,52.165 -30.175,92.004c-0,41.811 10.946,73.367 32.837,94.667c21.892,21.3 49.404,31.95 82.538,31.95c14.594,-0 28.104,-1.972 40.529,-5.917c12.425,-3.944 24.16,-8.875 35.204,-14.792l0,31.359c-11.044,6.311 -22.976,11.439 -35.796,15.383c-12.819,3.945 -27.71,5.917 -44.671,5.917Z" style="fill-rule:nonzero;"/><path d="M9458.95,2669.62c-8.283,-0 -16.566,-1.085 -24.85,-3.254c-8.283,-2.17 -15.777,-5.818 -22.483,-10.946c-6.706,-5.128 -12.228,-11.932 -16.567,-20.413c-4.339,-8.48 -6.508,-19.032 -6.508,-31.654l0,-215.367l-37.867,0l0,-29.583l37.867,0l4.142,-60.35l31.95,0l-0,60.35l88.75,0l-0,29.583l-88.75,0l-0,207.675c-0,14.2 3.747,25.048 11.241,32.542c7.495,7.495 17.356,11.242 29.584,11.242c9.861,-0 18.44,-1.282 25.737,-3.846c7.297,-2.564 14.496,-5.621 21.596,-9.171l0,27.808c-6.706,3.945 -14.299,7.495 -22.779,10.65c-8.481,3.156 -18.835,4.734 -31.063,4.734Z" style="fill-rule:nonzero;"/><path d="M9584.98,2298.05c-5.916,0 -11.044,-2.071 -15.383,-6.212c-4.339,-4.142 -6.508,-9.171 -6.508,-15.088c-0,-6.311 2.169,-11.636 6.508,-15.975c4.339,-4.339 9.467,-6.508 15.383,-6.508c6.311,-0 11.735,2.169 16.271,6.508c4.536,4.339 6.804,9.664 6.804,15.975c0,5.917 -2.268,10.946 -6.804,15.088c-4.536,4.141 -9.96,6.212 -16.271,6.212Zm-17.75,368.017l0,-307.667l36.092,0l0,307.667l-36.092,-0Z" style="fill-rule:nonzero;"/><path d="M9813.36,2669.62c-20.117,-0 -38.853,-3.649 -56.209,-10.946c-17.355,-7.297 -32.344,-17.651 -44.966,-31.063c-12.623,-13.411 -22.484,-29.977 -29.584,-49.7c-7.1,-19.722 -10.65,-41.811 -10.65,-66.266c0,-24.456 3.55,-46.545 10.65,-66.267c7.1,-19.722 16.961,-36.387 29.584,-49.996c12.622,-13.608 27.611,-24.061 44.966,-31.358c17.356,-7.297 36.092,-10.946 56.209,-10.946c20.116,0 38.852,3.649 56.208,10.946c17.356,7.297 32.246,17.75 44.671,31.358c12.425,13.609 22.187,30.274 29.287,49.996c7.1,19.722 10.65,41.811 10.65,66.267c0,24.455 -3.55,46.544 -10.65,66.266c-7.1,19.723 -16.862,36.289 -29.287,49.7c-12.425,13.412 -27.315,23.766 -44.671,31.063c-17.356,7.297 -36.092,10.946 -56.208,10.946Zm-0,-31.95c16.172,-0 30.668,-3.254 43.487,-9.763c12.82,-6.508 23.667,-15.383 32.542,-26.625c8.875,-11.241 15.679,-24.554 20.412,-39.937c4.734,-15.384 7.1,-31.95 7.1,-49.7c0,-37.472 -9.17,-67.647 -27.512,-90.525c-18.342,-22.878 -43.685,-34.317 -76.029,-34.317c-32.345,0 -57.786,11.439 -76.325,34.317c-18.539,22.878 -27.809,53.053 -27.809,90.525c0,17.75 2.367,34.316 7.1,49.7c4.734,15.383 11.538,28.696 20.413,39.937c8.875,11.242 19.821,20.117 32.837,26.625c13.017,6.509 27.611,9.763 43.784,9.763Z" style="fill-rule:nonzero;"/><path d="M10022.8,2666.07l-0,-307.667l32.541,0l2.367,53.25c8.678,-17.75 21.399,-31.851 38.163,-42.304c16.763,-10.453 37.176,-15.679 61.237,-15.679c33.528,-0 59.167,10.453 76.917,31.358c17.75,20.906 26.625,49.503 26.625,85.792l-0,195.25l-36.092,-0l0,-188.742c0,-29.189 -6.508,-51.968 -19.525,-68.337c-13.017,-16.37 -32.542,-24.555 -58.575,-24.555c-13.806,0 -26.231,2.564 -37.275,7.692c-11.044,5.128 -20.215,11.833 -27.512,20.117c-7.298,8.283 -12.919,18.046 -16.863,29.287c-3.944,11.242 -5.917,22.977 -5.917,35.204l0,189.334l-36.091,-0Z" style="fill-rule:nonzero;"/></g></g></svg>